<svg width="80" height="80" viewBox="0 0 80 80" fill="none" xmlns="http://www.w3.org/2000/svg">
<path d="M76.7723 10.6875H56.6789C56.1345 8.01625 53.7672 6 50.9375 6H29.0625C26.2328 6 23.8655 8.01625 23.3211 10.6875H3.22766C1.44797 10.6875 0 12.1353 0 13.9147V64.4811C0 66.2606 1.44797 67.7083 3.22766 67.7083H31.3548L29.7739 72.5655H26.4911C24.2473 72.5655 22.4217 74.3908 22.4217 76.6344C22.4217 78.2673 23.7505 79.5959 25.3836 79.5959H54.6161C56.2492 79.5959 57.578 78.2675 57.578 76.6344C57.578 74.3908 55.7523 72.5655 53.5086 72.5655H50.2258L48.6448 67.7083H76.772C78.5519 67.7083 79.9997 66.2605 79.9997 64.4811V13.9147C80 12.1353 78.552 10.6875 76.7723 10.6875ZM44.6844 8.34375H50.9375C52.8759 8.34375 54.4531 9.92078 54.4531 11.8594C54.4531 13.798 52.8759 15.375 50.9375 15.375H44.6844C45.4217 14.395 45.8594 13.1775 45.8594 11.8594C45.8594 10.5413 45.4217 9.32375 44.6844 8.34375ZM40 8.34375C41.9384 8.34375 43.5156 9.92078 43.5156 11.8594C43.5156 13.798 41.9384 15.375 40 15.375C38.0616 15.375 36.4844 13.798 36.4844 11.8594C36.4844 9.92078 38.0616 8.34375 40 8.34375ZM29.0625 8.34375H35.3156C34.5783 9.32375 34.1406 10.5413 34.1406 11.8594C34.1406 13.1775 34.5783 14.395 35.3156 15.375H29.0625C27.1241 15.375 25.5469 13.798 25.5469 11.8594C25.5469 9.92078 27.1241 8.34375 29.0625 8.34375ZM53.5088 74.9094C54.4603 74.9094 55.2344 75.6833 55.2344 76.6345C55.2344 76.9752 54.9572 77.2523 54.6162 77.2523H25.3837C25.0428 77.2523 24.7656 76.9753 24.7656 76.6345C24.7656 75.6833 25.5397 74.9094 26.4913 74.9094H34.7352C35.3825 74.9094 35.907 74.3847 35.907 73.7375C35.907 73.0903 35.3825 72.5656 34.7352 72.5656H32.2389L33.8198 67.7084H46.1803L47.7612 72.5656H40.143C39.4956 72.5656 38.9711 73.0903 38.9711 73.7375C38.9711 74.3847 39.4956 74.9094 40.143 74.9094H53.5088ZM77.6562 20.0608H23.5938C22.9464 20.0608 22.4219 20.5855 22.4219 21.2327C22.4219 21.8798 22.9464 22.4045 23.5938 22.4045H77.6562V55.9914H68.7891C68.1417 55.9914 67.6172 56.5161 67.6172 57.1633C67.6172 57.8105 68.1417 58.3352 68.7891 58.3352H77.6562V64.4811C77.6562 64.9683 77.2597 65.3645 76.7723 65.3645H3.22766C2.74031 65.3645 2.34375 64.9681 2.34375 64.4811V58.3352H63.3973C64.0447 58.3352 64.5692 57.8105 64.5692 57.1633C64.5692 56.5161 64.0447 55.9914 63.3973 55.9914H58.9189C58.063 53.5216 55.9762 51.6236 53.3834 51.037C53.375 51.035 53.3666 51.0333 53.358 51.0316L44.4739 49.2294C44.3791 48.5044 44.3606 47.7834 44.42 47.0222C47.5339 44.4181 49.0505 42.1109 49.0505 39.9792C49.0505 39.7481 49.0411 39.5205 49.0211 39.2878C48.9711 38.7778 48.9428 36.4264 48.9527 33.5694C48.9606 31.2416 48.0595 29.0509 46.4158 27.4011C44.7705 25.7498 42.5805 24.8402 40.2494 24.8398C40.2489 24.8398 40.2484 24.8398 40.248 24.8398C37.9167 24.8398 35.7264 25.7492 34.0808 27.4003C32.4364 29.0502 31.5352 31.2411 31.5431 33.5695C31.553 36.4281 31.5247 38.7816 31.4736 39.3044C31.4548 39.5167 31.4453 39.7438 31.4453 39.9791C31.4453 42.108 32.9572 44.4112 36.0591 47.0078C36.1167 47.7525 36.0959 48.4572 35.9964 49.1912L26.9528 51.0309C26.9444 51.0327 26.9361 51.0344 26.9277 51.0364C24.3352 51.6234 22.2489 53.5217 21.3934 55.9914H2.34375V22.4045H18.2302C18.8775 22.4045 19.402 21.8798 19.402 21.2327C19.402 20.5855 18.8775 20.0608 18.2302 20.0608H2.34375V13.9147C2.34375 13.4275 2.74031 13.0312 3.22766 13.0312H23.3209C23.8653 15.7025 26.2327 17.7188 29.0623 17.7188H50.9373C53.767 17.7188 56.1344 15.7025 56.6787 13.0312H76.772C77.2594 13.0312 77.6559 13.4277 77.6559 13.9147V20.0608H77.6562ZM33.8869 33.5614C33.8811 31.8606 34.5395 30.2602 35.7408 29.0548C36.9436 27.8481 38.5441 27.1836 40.248 27.1836H40.2491C41.9525 27.1839 43.5531 27.8486 44.7556 29.0555C45.9566 30.2606 46.6147 31.8609 46.6089 33.5612C46.6006 35.9645 46.6173 38.7911 46.6873 39.5017C46.7002 39.6534 46.7067 39.8141 46.7067 39.9792C46.7067 41.3877 45.2275 43.36 42.5394 45.5352C41.8967 46.0577 41.087 46.3453 40.2537 46.3453C40.2512 46.3453 40.2487 46.3453 40.2462 46.3453C39.4069 46.3456 38.6 46.0584 37.952 45.5313C35.2673 43.3594 33.7889 41.3875 33.7889 39.9792C33.7889 39.8122 33.7953 39.6542 33.8069 39.5217C33.8784 38.7945 33.8952 35.9661 33.8869 33.5614ZM42.1945 49.8567C42.1366 49.9192 42.078 49.982 42.0189 50.0447C41.5064 50.5908 40.882 50.8912 40.2537 50.8912C40.2505 50.8912 40.247 50.8912 40.2436 50.8912C39.6205 50.8912 38.9947 50.59 38.4791 50.0402C38.41 49.9669 38.3416 49.8934 38.2739 49.8202C38.3498 49.3423 38.3972 48.8725 38.4192 48.4025C39.0036 48.5902 39.6164 48.6889 40.235 48.6889H40.2584C40.8703 48.6889 41.4758 48.593 42.0531 48.4106C42.0727 48.8941 42.1186 49.3733 42.1945 49.8567ZM36.5995 51.4603C36.6569 51.5222 36.7136 51.5842 36.7717 51.6456C37.733 52.6708 38.9655 53.2348 40.2373 53.2348H40.2602C41.5366 53.2348 42.7678 52.6717 43.7261 51.6505C43.7739 51.5998 43.8206 51.5487 43.868 51.4978L52.8788 53.3258C54.3925 53.672 55.6564 54.6628 56.3692 55.9914H23.9431C24.6558 54.6625 25.9195 53.6714 27.4334 53.325L36.5995 51.4603Z" fill="#086CF9"/>
</svg>
