<svg width="72" height="73" viewBox="0 0 72 73" fill="none" xmlns="http://www.w3.org/2000/svg">
<path d="M66.2344 37.7706C69.461 37.4848 72 34.7685 72 31.4688V11.7812C72 8.29192 69.1612 5.45312 65.6719 5.45312H44.7188C41.2294 5.45312 38.3906 8.29192 38.3906 11.7812V20.0781H12.0938C8.60442 20.0781 5.76562 22.9169 5.76562 26.4062V51.7188C5.76562 52.4582 5.8943 53.1679 6.12844 53.8281H3.79688C1.70325 53.8281 0 55.5314 0 57.625C0 63.4405 4.73133 68.1719 10.5469 68.1719H61.4531C67.2687 68.1719 72 63.4405 72 57.625C72 55.5314 70.2968 53.8281 68.2031 53.8281H65.8716C66.1057 53.1679 66.2344 52.4582 66.2344 51.7188V37.7706ZM42.6094 11.7812C42.6094 10.6181 43.5556 9.67188 44.7188 9.67188H65.6719C66.835 9.67188 67.7812 10.6181 67.7812 11.7812V31.4688C67.7812 32.6319 66.835 33.5781 65.6719 33.5781H46.125C45.7296 33.5781 45.3423 33.6892 45.007 33.8988L40.754 36.557L42.5205 30.6686C42.5794 30.472 42.6094 30.2678 42.6094 30.0625V11.7812ZM61.4531 63.9531H10.5469C7.1993 63.9531 4.45064 61.3402 4.23267 58.0469H67.7673C67.5494 61.3402 64.8007 63.9531 61.4531 63.9531ZM20.1094 37.9375C20.1094 36.6193 21.1818 35.5469 22.5 35.5469C23.8182 35.5469 24.8906 36.6193 24.8906 37.9375C24.8906 39.2557 23.8182 40.3281 22.5 40.3281C21.1818 40.3281 20.1094 39.2557 20.1094 37.9375ZM18.9844 46.9375C18.9844 45.664 20.6272 44.5469 22.5 44.5469C23.5043 44.5469 24.472 44.8602 25.1549 45.4065C25.4765 45.6637 26.0156 46.2046 26.0156 46.9375V53.8281H18.9844V46.9375ZM30.2344 53.8281V46.9375C30.2344 45.1136 29.3437 43.3548 27.7903 42.1122C27.7554 42.0843 27.719 42.0581 27.6836 42.0308C28.5751 40.9041 29.1094 39.4824 29.1094 37.9375C29.1094 34.2931 26.1444 31.3281 22.5 31.3281C18.8556 31.3281 15.8906 34.2931 15.8906 37.9375C15.8906 39.4842 16.4261 40.9072 17.3194 42.0345C15.7523 43.2448 14.7656 44.9945 14.7656 46.9375V53.8281H12.0938C10.9306 53.8281 9.98438 52.8819 9.98438 51.7188V26.4062C9.98438 25.2431 10.9306 24.2969 12.0938 24.2969H38.3906V29.753L36.7131 35.3447C36.2036 37.0428 36.7851 38.8353 38.1946 39.9108C38.9538 40.4901 39.85 40.7829 40.7505 40.7829C41.5216 40.7829 42.2961 40.568 42.9896 40.1345L46.73 37.7969H62.0156V51.7188C62.0156 52.8819 61.0694 53.8281 59.9062 53.8281H30.2344Z" fill="#086CF9"/>
<path d="M57.375 24.5781H52.875C51.7101 24.5781 50.7656 25.5226 50.7656 26.6875C50.7656 27.8524 51.7101 28.7969 52.875 28.7969H57.375C58.5399 28.7969 59.4844 27.8524 59.4844 26.6875C59.4844 25.5226 58.5399 24.5781 57.375 24.5781Z" fill="#086CF9"/>
<path d="M49.5 18.6719H60.75C61.9149 18.6719 62.8594 17.7274 62.8594 16.5625C62.8594 15.3976 61.9149 14.4531 60.75 14.4531H49.5C48.3351 14.4531 47.3906 15.3976 47.3906 16.5625C47.3906 17.7274 48.3351 18.6719 49.5 18.6719Z" fill="#086CF9"/>
</svg>
